S      1                                                                        G      1
1H,,1H;,4HNONE,4HNONE,16,38,6,38,15,,1.0D0,2,2HMM,1,0.25D0,15H20260910.000000,G      2
0.0001D0,1000.D0,13HDravaspShroff,35HAerospaceExtremePerformanceLaptop,11,0;    G      3
100      1       0       1       0       0       0       000000001D      1
100      0       0       1       0                               0D      2
102      2       0       1       0       0       0       000000001D      3
102      0       0       1       0                               0D      4
110      3       0       1       0       0       0       000000001D      5
110      0       0       1       0                               0D      6
120      4       0       1       0       0       0       000000001D      7
120      0       0       1       0                               0D      8
100,0.,0.,0.,360.,250.,18.;                                              1P      1
102,2,3,4;                                                               2P      2
110,0.,0.,0.,360.,0.,0.;                                                 3P      3
120,1,2,0.,0.,0.,0.,0.,1.;                                               4P      4
S      1G      3D      8P      4                                         T      1
