0
SECTION
  2
HEADER
  9
$ACADVER
  1
AC1027
  9
$INSUNITS
 70
    4
  0
ENDSEC
  0
SECTION
  2
TABLES
  0
TABLE
  2
LAYER
 70
    6
  0
LAYER
  2
BASE_UNIBODY_7075
 70
    0
 62
    7
  6
CONTINUOUS
  0
LAYER
  2
THERMAL_INSERTS_COPPER
 70
    0
 62
    1
  6
CONTINUOUS
  0
LAYER
  2
PORTS_TITANIUM_CAGES
 70
    0
 62
    3
  6
CONTINUOUS
  0
LAYER
  2
VENTING_SLOTS
 70
    0
 62
    4
  6
CONTINUOUS
  0
LAYER
  2
BATTERY_RECESS
 70
    0
 62
    5
  6
CONTINUOUS
  0
LAYER
  2
COMM_AND_USB_PORTS
 70
    0
 62
    2
  6
CONTINUOUS
  0
ENDTAB
  0
ENDSEC
  0
SECTION
  2
ENTITIES
  0
POLYLINE
  8
BASE_UNIBODY_7075
 66
    1
 70
    1
  0
VERTEX
  8
BASE_UNIBODY_7075
 10
0.0
 20
0.0
 30
0.0
  0
VERTEX
  8
BASE_UNIBODY_7075
 10
360.0
 20
0.0
 30
0.0
  0
VERTEX
  8
BASE_UNIBODY_7075
 10
360.0
 20
250.0
 30
0.0
  0
VERTEX
  8
BASE_UNIBODY_7075
 10
0.0
 20
250.0
 30
0.0
  0
SEQEND
  0
POLYLINE
  8
BATTERY_RECESS
 66
    1
 70
    1
  0
VERTEX
  8
BATTERY_RECESS
 10
105.0
 20
20.0
 30
-5.2
  0
VERTEX
  8
BATTERY_RECESS
 10
255.0
 20
20.0
 30
-5.2
  0
VERTEX
  8
BATTERY_RECESS
 10
255.0
 20
120.0
 30
-5.2
  0
VERTEX
  8
BATTERY_RECESS
 10
105.0
 20
120.0
 30
-5.2
  0
SEQEND
  0
POLYLINE
  8
THERMAL_INSERTS_COPPER
 66
    1
 70
    1
  0
VERTEX
  8
THERMAL_INSERTS_COPPER
 10
115.0
 20
130.0
 30
-2.5
  0
VERTEX
  8
THERMAL_INSERTS_COPPER
 10
235.0
 20
130.0
 30
-2.5
  0
VERTEX
  8
THERMAL_INSERTS_COPPER
 10
235.0
 20
210.0
 30
-2.5
  0
VERTEX
  8
THERMAL_INSERTS_COPPER
 10
115.0
 20
210.0
 30
-2.5
  0
SEQEND
  0
POLYLINE
  8
COMM_AND_USB_PORTS
 66
    1
 70
    1
  0
VERTEX
  8
COMM_AND_USB_PORTS
 10
5.0
 20
115.0
 30
-1.5
  0
VERTEX
  8
COMM_AND_USB_PORTS
 10
17.0
 20
115.0
 30
-1.5
  0
VERTEX
  8
COMM_AND_USB_PORTS
 10
17.0
 20
129.0
 30
-1.5
  0
VERTEX
  8
COMM_AND_USB_PORTS
 10
5.0
 20
129.0
 30
-1.5
  0
SEQEND
  0
POLYLINE
  8
COMM_AND_USB_PORTS
 66
    1
 70
    1
  0
VERTEX
  8
COMM_AND_USB_PORTS
 10
345.0
 20
165.0
 30
-2.0
  0
VERTEX
  8
COMM_AND_USB_PORTS
 10
359.0
 20
165.0
 30
-2.0
  0
VERTEX
  8
COMM_AND_USB_PORTS
 10
359.0
 20
181.0
 30
-2.0
  0
VERTEX
  8
COMM_AND_USB_PORTS
 10
345.0
 20
181.0
 30
-2.0
  0
SEQEND
  0
ENDSEC
  0
EOF
